<svg id="Capa_1" data-name="Capa 1" xmlns="http://www.w3.org/2000/svg" viewBox="0 0 170.08 198.43"><title>acamDark</title><rect width="170.08" height="198.43" fill="#1e2b3d"/><path d="M135,126.23h-8.24L122.88,151c-.22-1.2-4.34-24.79-4.34-24.79h-10.7V164.8h7.39v-15l3.34,15h8.25L130,149.61V164.8h7.39V126.23Z" fill="#00657e"/><polygon points="40.67 149.39 46.47 149.39 46.47 141.37 32.65 141.37 32.65 164.47 40.67 164.47 40.67 149.39" fill="#00657e"/><polygon points="55.73 164.47 55.73 126.44 32.74 126.44 32.74 134.46 47.71 134.46 47.71 156.45 41.92 156.45 41.92 164.47 50.67 164.47 55.73 164.47" fill="#00657e"/><polygon points="90.8 149.39 96.6 149.39 96.6 141.37 82.78 141.37 82.78 164.47 90.8 164.47 90.8 149.39" fill="#00657e"/><polygon points="105.86 164.47 105.86 126.44 82.88 126.44 82.88 134.46 97.84 134.46 97.84 156.45 92.06 156.45 92.06 164.47 100.8 164.47 105.86 164.47" fill="#00657e"/><polygon points="80.83 156.38 67.93 156.38 67.93 156.32 65.87 156.32 65.87 134.53 67.93 134.53 71.55 134.53 80.83 134.53 80.83 126.44 67.93 126.44 57.85 126.44 57.85 134.53 57.85 156.38 57.85 164.4 57.85 164.47 80.83 164.47 80.83 156.38" fill="#00657e"/><path d="M31.64,180.15h-.83a.36.36,0,0,1-.24-.07.43.43,0,0,1-.13-.19L29.7,178H26.13l-.74,1.92a.4.4,0,0,1-.14.18.36.36,0,0,1-.23.08h-.83l3.18-8h1.09Zm-5.21-3h3L28.15,174a6.73,6.73,0,0,1-.24-.75q-.06.24-.12.42l-.11.34Z" fill="#fff"/><path d="M37.32,172.2v.9H34.76v7.05H33.68V173.1H31.1v-.9Z" fill="#fff"/><path d="M43.35,172.2v.88H39.54v2.64h3.09v.84H39.54v2.71h3.81v.88H38.46v-8Z" fill="#fff"/><path d="M45.67,172.24a.48.48,0,0,1,.16.14l4.6,6a2.64,2.64,0,0,1,0-.28,2.26,2.26,0,0,1,0-.26V172.2h1v8H50.8a.65.65,0,0,1-.21,0,.57.57,0,0,1-.17-.15l-4.6-6c0,.09,0,.18,0,.27v5.91H44.9v-8h.56A.41.41,0,0,1,45.67,172.24Z" fill="#fff"/><path d="M58.89,178.51a.21.21,0,0,1,.16.07l.42.46a3.32,3.32,0,0,1-1.18.88,4.06,4.06,0,0,1-1.68.32,3.94,3.94,0,0,1-1.56-.3,3.45,3.45,0,0,1-1.19-.83,4,4,0,0,1-.77-1.28,4.84,4.84,0,0,1-.27-1.65,4.61,4.61,0,0,1,.29-1.65,3.9,3.9,0,0,1,.82-1.29,3.64,3.64,0,0,1,1.26-.83,4.26,4.26,0,0,1,1.63-.3,3.6,3.6,0,0,1,2.64,1l-.35.49-.09.1a.31.31,0,0,1-.15,0,.33.33,0,0,1-.15-.05l-.19-.13-.26-.17a2,2,0,0,0-.36-.16,2.43,2.43,0,0,0-.47-.13,2.93,2.93,0,0,0-.63-.06,3.2,3.2,0,0,0-1.17.22,2.75,2.75,0,0,0-.91.63,2.94,2.94,0,0,0-.6,1,4.22,4.22,0,0,0,0,2.63,3,3,0,0,0,.59,1,2.33,2.33,0,0,0,.87.61,2.82,2.82,0,0,0,1.09.21,4.22,4.22,0,0,0,.64,0,2.83,2.83,0,0,0,.52-.13,2.35,2.35,0,0,0,.45-.22,4,4,0,0,0,.42-.33A.29.29,0,0,1,58.89,178.51Z" fill="#fff"/><path d="M62.16,180.15H61.09v-8h1.07Z" fill="#fff"/><path d="M71.68,176.18a4.59,4.59,0,0,1-.29,1.64,3.73,3.73,0,0,1-.79,1.28,3.68,3.68,0,0,1-1.24.84,4.38,4.38,0,0,1-1.6.29,4.3,4.3,0,0,1-1.6-.29,3.58,3.58,0,0,1-1.24-.84,3.91,3.91,0,0,1-.8-1.28,4.94,4.94,0,0,1,0-3.28,3.85,3.85,0,0,1,.8-1.29,3.58,3.58,0,0,1,1.24-.84,4.11,4.11,0,0,1,1.6-.3,4.18,4.18,0,0,1,1.6.3,3.56,3.56,0,0,1,2,2.13A4.56,4.56,0,0,1,71.68,176.18Zm-1.11,0a3.89,3.89,0,0,0-.2-1.32,2.77,2.77,0,0,0-.56-1,2.42,2.42,0,0,0-.89-.62,3.11,3.11,0,0,0-1.16-.22,3,3,0,0,0-1.16.22,2.34,2.34,0,0,0-.89.62,2.64,2.64,0,0,0-.57,1,3.89,3.89,0,0,0-.2,1.32,3.84,3.84,0,0,0,.2,1.31,2.64,2.64,0,0,0,.57,1,2.46,2.46,0,0,0,.89.62,3,3,0,0,0,1.16.21,3.11,3.11,0,0,0,1.16-.21,2.55,2.55,0,0,0,.89-.62,2.77,2.77,0,0,0,.56-1A3.84,3.84,0,0,0,70.57,176.18Zm-.91-5.92L68,171.46a.47.47,0,0,1-.17.09.53.53,0,0,1-.19,0h-.76l1.17-1.12a.41.41,0,0,1,.1-.09l.1-.06.11,0h1.27Z" fill="#fff"/><path d="M73.92,172.24a.6.6,0,0,1,.15.14l4.61,6a2.64,2.64,0,0,1,0-.28,2.26,2.26,0,0,1,0-.26V172.2h.94v8h-.54a.56.56,0,0,1-.21,0,.47.47,0,0,1-.17-.15l-4.6-6a2.44,2.44,0,0,1,0,.27,2.18,2.18,0,0,1,0,.25v5.66h-.94v-8h.55A.43.43,0,0,1,73.92,172.24Z" fill="#fff"/><path d="M86.74,177v3.16H85.67V177l-2.92-4.79h1a.35.35,0,0,1,.23.07.86.86,0,0,1,.14.18l1.82,3.09c.07.13.13.25.18.37a2.33,2.33,0,0,1,.14.33l.13-.34a3.2,3.2,0,0,1,.19-.36l1.81-3.09a.55.55,0,0,1,.14-.17.31.31,0,0,1,.22-.08h1Z" fill="#fff"/><path d="M98.4,178.51a.21.21,0,0,1,.16.07L99,179a3.32,3.32,0,0,1-1.18.88,4.09,4.09,0,0,1-1.68.32,3.91,3.91,0,0,1-1.56-.3,3.36,3.36,0,0,1-1.19-.83,3.84,3.84,0,0,1-.77-1.28,4.84,4.84,0,0,1-.27-1.65,4.61,4.61,0,0,1,.29-1.65,3.74,3.74,0,0,1,.82-1.29,3.64,3.64,0,0,1,1.26-.83,4.25,4.25,0,0,1,1.62-.3,3.81,3.81,0,0,1,1.51.27,3.75,3.75,0,0,1,1.13.74l-.35.49a.39.39,0,0,1-.08.1.33.33,0,0,1-.15,0,.3.3,0,0,1-.15-.05l-.19-.13-.26-.17a2,2,0,0,0-.36-.16,2.65,2.65,0,0,0-.47-.13,3.06,3.06,0,0,0-.63-.06,3.13,3.13,0,0,0-1.17.22,2.65,2.65,0,0,0-.91.63,2.78,2.78,0,0,0-.6,1,4.22,4.22,0,0,0,0,2.63,3,3,0,0,0,.58,1,2.45,2.45,0,0,0,.88.61,2.79,2.79,0,0,0,1.09.21,4.09,4.09,0,0,0,.63,0,2.74,2.74,0,0,0,.53-.13,2.35,2.35,0,0,0,.45-.22,4,4,0,0,0,.41-.33A.34.34,0,0,1,98.4,178.51Z" fill="#fff"/><path d="M103.48,179.29a2.28,2.28,0,0,0,.89-.16,1.9,1.9,0,0,0,.65-.47,2,2,0,0,0,.41-.71,2.73,2.73,0,0,0,.14-.92V172.2h1.08V177a3.78,3.78,0,0,1-.22,1.28,3.13,3.13,0,0,1-.63,1,2.84,2.84,0,0,1-1,.67,3.45,3.45,0,0,1-1.32.24,3.52,3.52,0,0,1-1.32-.24,2.89,2.89,0,0,1-1-.67,2.82,2.82,0,0,1-.63-1,3.55,3.55,0,0,1-.22-1.28V172.2h1.07V177a2.67,2.67,0,0,0,.14.91,1.9,1.9,0,0,0,1.07,1.19A2.23,2.23,0,0,0,103.48,179.29Z" fill="#fff"/><path d="M109.77,180.15h-1.08v-8h1.08Z" fill="#fff"/><path d="M118.79,176.18a4.67,4.67,0,0,1-.28,1.62,3.46,3.46,0,0,1-2,2.06,4.3,4.3,0,0,1-1.6.29h-3v-8h3a4.3,4.3,0,0,1,1.6.29,3.53,3.53,0,0,1,2,2.06A4.68,4.68,0,0,1,118.79,176.18Zm-1.1,0a4.05,4.05,0,0,0-.2-1.31,2.94,2.94,0,0,0-.57-1,2.44,2.44,0,0,0-.89-.61,3.07,3.07,0,0,0-1.16-.21H113v6.21h1.89a3.07,3.07,0,0,0,1.16-.21,2.44,2.44,0,0,0,.89-.61,2.89,2.89,0,0,0,.57-1A4.1,4.1,0,0,0,117.69,176.18Z" fill="#fff"/><path d="M126.56,180.15h-.83a.32.32,0,0,1-.23-.07.45.45,0,0,1-.14-.19l-.74-1.92h-3.57l-.74,1.92a.46.46,0,0,1-.13.18.41.41,0,0,1-.24.08h-.83l3.18-8h1.09Zm-5.21-3h3L123.07,174a6.73,6.73,0,0,1-.24-.75q-.06.24-.12.42c0,.13-.07.24-.11.34Z" fill="#fff"/><path d="M134.45,176.18a4.45,4.45,0,0,1-.28,1.62,3.48,3.48,0,0,1-2,2.06,4.38,4.38,0,0,1-1.6.29h-3v-8h3a4.38,4.38,0,0,1,1.6.29,3.55,3.55,0,0,1,2,2.06A4.46,4.46,0,0,1,134.45,176.18Zm-1.1,0a4.05,4.05,0,0,0-.2-1.31,2.77,2.77,0,0,0-.56-1,2.62,2.62,0,0,0-.89-.61,3.11,3.11,0,0,0-1.16-.21h-1.89v6.21h1.89a3.11,3.11,0,0,0,1.16-.21,2.62,2.62,0,0,0,.89-.61,2.72,2.72,0,0,0,.56-1A4.1,4.1,0,0,0,133.35,176.18Z" fill="#fff"/><path d="M143.3,176.18a4.59,4.59,0,0,1-.28,1.64,3.91,3.91,0,0,1-.8,1.28,3.58,3.58,0,0,1-1.24.84,4.56,4.56,0,0,1-3.2,0,3.54,3.54,0,0,1-1.23-.84,3.75,3.75,0,0,1-.8-1.28,4.78,4.78,0,0,1,0-3.28,3.7,3.7,0,0,1,.8-1.29,3.54,3.54,0,0,1,1.23-.84,4.42,4.42,0,0,1,3.2,0,3.58,3.58,0,0,1,1.24.84,3.85,3.85,0,0,1,.8,1.29A4.55,4.55,0,0,1,143.3,176.18Zm-1.1,0a4.16,4.16,0,0,0-.2-1.32,2.64,2.64,0,0,0-.57-1,2.34,2.34,0,0,0-.89-.62,3,3,0,0,0-1.16-.22,3.11,3.11,0,0,0-1.16.22,2.42,2.42,0,0,0-.89.62,2.64,2.64,0,0,0-.57,1,4.16,4.16,0,0,0-.2,1.32,4.1,4.1,0,0,0,.2,1.31,2.64,2.64,0,0,0,.57,1,2.55,2.55,0,0,0,.89.62,3.11,3.11,0,0,0,1.16.21,3,3,0,0,0,1.16-.21,2.46,2.46,0,0,0,.89-.62,2.64,2.64,0,0,0,.57-1A4.1,4.1,0,0,0,142.2,176.18Z" fill="#fff"/><path d="M39,187.27a4.46,4.46,0,0,1-.29,1.63,3.53,3.53,0,0,1-.8,1.25,3.47,3.47,0,0,1-1.23.81,4.34,4.34,0,0,1-1.6.28h-3v-8h3a4.34,4.34,0,0,1,1.6.29,3.47,3.47,0,0,1,1.23.81,3.57,3.57,0,0,1,.8,1.26A4.45,4.45,0,0,1,39,187.27Zm-1.11,0a4.1,4.1,0,0,0-.2-1.31,2.72,2.72,0,0,0-.56-1,2.4,2.4,0,0,0-.89-.61,3.11,3.11,0,0,0-1.16-.21H33.21v6.2H35.1a3.11,3.11,0,0,0,1.16-.21,2.4,2.4,0,0,0,.89-.61,2.64,2.64,0,0,0,.56-1A4.05,4.05,0,0,0,37.91,187.27Z" fill="#fff"/><path d="M45.38,183.29v.88H41.56v2.64h3.09v.85H41.56v2.71h3.82v.87h-4.9v-8Z" fill="#fff"/><path d="M48,190.34h3.44v.9H46.93v-8H48Z" fill="#fff"/><path d="M61.31,191.24h-.83a.32.32,0,0,1-.23-.07.49.49,0,0,1-.14-.18l-.74-1.92H55.8L55.06,191a.47.47,0,0,1-.14.18.35.35,0,0,1-.23.07h-.83l3.18-8h1.09Zm-5.21-3h3l-1.25-3.23a6.73,6.73,0,0,1-.24-.75q-.06.23-.12.42a3.17,3.17,0,0,1-.11.33Z" fill="#fff"/><path d="M69.2,187.27a4.46,4.46,0,0,1-.28,1.63,3.53,3.53,0,0,1-.8,1.25,3.42,3.42,0,0,1-1.24.81,4.28,4.28,0,0,1-1.59.28h-3v-8h3a4.29,4.29,0,0,1,1.59.29,3.42,3.42,0,0,1,1.24.81,3.57,3.57,0,0,1,.8,1.26A4.45,4.45,0,0,1,69.2,187.27Zm-1.1,0a4.1,4.1,0,0,0-.2-1.31,2.6,2.6,0,0,0-.57-1,2.36,2.36,0,0,0-.88-.61,3.11,3.11,0,0,0-1.16-.21H63.4v6.2h1.89a3.11,3.11,0,0,0,1.16-.21,2.36,2.36,0,0,0,.88-.61,2.52,2.52,0,0,0,.57-1A4.05,4.05,0,0,0,68.1,187.27Z" fill="#fff"/><path d="M73.76,190.39a2.23,2.23,0,0,0,.88-.17,1.83,1.83,0,0,0,.66-.46,2.12,2.12,0,0,0,.41-.72,2.94,2.94,0,0,0,.14-.91v-4.84h1.07v4.84a3.53,3.53,0,0,1-.22,1.27,3.13,3.13,0,0,1-.63,1,2.76,2.76,0,0,1-1,.67,3.3,3.3,0,0,1-1.32.25,3.27,3.27,0,0,1-1.32-.25,2.83,2.83,0,0,1-1.63-1.69,3.53,3.53,0,0,1-.22-1.27v-4.84h1.07v4.83a3,3,0,0,0,.14.92,2.17,2.17,0,0,0,.41.71,1.85,1.85,0,0,0,.66.47A2.28,2.28,0,0,0,73.76,190.39Z" fill="#fff"/><path d="M79.84,190.34h3.44v.9H78.77v-8h1.07Z" fill="#fff"/><path d="M88.93,183.29v.91H86.36v7H85.28v-7H82.7v-.91Z" fill="#fff"/><path d="M96.9,187.27a4.55,4.55,0,0,1-.28,1.64,3.85,3.85,0,0,1-.8,1.29,3.8,3.8,0,0,1-1.24.83,4.42,4.42,0,0,1-3.2,0,3.8,3.8,0,0,1-1.24-.83,3.85,3.85,0,0,1-.8-1.29,4.94,4.94,0,0,1,0-3.28,3.91,3.91,0,0,1,.8-1.28,3.68,3.68,0,0,1,1.24-.84,4.42,4.42,0,0,1,3.2,0,3.68,3.68,0,0,1,1.24.84,3.91,3.91,0,0,1,.8,1.28A4.59,4.59,0,0,1,96.9,187.27Zm-1.1,0a4.1,4.1,0,0,0-.2-1.31,2.83,2.83,0,0,0-.57-1,2.46,2.46,0,0,0-.89-.62,3,3,0,0,0-1.16-.21,3.07,3.07,0,0,0-1.16.21,2.46,2.46,0,0,0-.89.62,2.68,2.68,0,0,0-.57,1,4.1,4.1,0,0,0-.2,1.31,4.05,4.05,0,0,0,.2,1.31,2.68,2.68,0,0,0,.57,1,2.44,2.44,0,0,0,.89.61,3.07,3.07,0,0,0,1.16.22,3,3,0,0,0,1.16-.22,2.44,2.44,0,0,0,.89-.61,2.83,2.83,0,0,0,.57-1A4.05,4.05,0,0,0,95.8,187.27Z" fill="#fff"/><path d="M104.56,188.65l.11.3q.06-.16.12-.3l.14-.29,2.69-4.88a.26.26,0,0,1,.15-.16.61.61,0,0,1,.22,0h.79v8h-.94V185.4a2.26,2.26,0,0,1,0-.25,2.44,2.44,0,0,1,0-.27l-2.72,5a.42.42,0,0,1-.39.25h-.16a.41.41,0,0,1-.38-.25l-2.79-5,0,.29v6.09h-.94v-8h.79a.71.71,0,0,1,.23,0,.33.33,0,0,1,.15.16l2.74,4.89A2.44,2.44,0,0,1,104.56,188.65Z" fill="#fff"/><path d="M117.26,191.24h-.83a.36.36,0,0,1-.24-.07.46.46,0,0,1-.13-.18l-.74-1.92h-3.57L111,191a.47.47,0,0,1-.14.18.35.35,0,0,1-.23.07h-.83l3.18-8h1.09Zm-5.21-3h3l-1.25-3.23a6.73,6.73,0,0,1-.24-.75q-.06.23-.12.42c0,.13-.08.24-.11.33Z" fill="#fff"/><path d="M120.41,188.08v3.16h-1.07v-3.16l-2.91-4.79h.94a.32.32,0,0,1,.23.08.61.61,0,0,1,.15.17l1.82,3.09c.07.13.13.26.18.37s.1.23.14.34c0-.12.08-.23.13-.35s.11-.23.18-.36l1.82-3.09a.65.65,0,0,1,.13-.16.32.32,0,0,1,.23-.09h1Z" fill="#fff"/><path d="M131.27,187.27a4.55,4.55,0,0,1-.28,1.64,3.85,3.85,0,0,1-.8,1.29A3.8,3.8,0,0,1,129,191a4.42,4.42,0,0,1-3.2,0,3.8,3.8,0,0,1-1.24-.83,3.85,3.85,0,0,1-.8-1.29,4.94,4.94,0,0,1,0-3.28,3.91,3.91,0,0,1,.8-1.28,3.68,3.68,0,0,1,1.24-.84,4.42,4.42,0,0,1,3.2,0,3.68,3.68,0,0,1,1.24.84,3.91,3.91,0,0,1,.8,1.28A4.59,4.59,0,0,1,131.27,187.27Zm-1.1,0A4.1,4.1,0,0,0,130,186a2.83,2.83,0,0,0-.57-1,2.46,2.46,0,0,0-.89-.62,3,3,0,0,0-1.16-.21,3.07,3.07,0,0,0-1.16.21,2.46,2.46,0,0,0-.89.62,2.68,2.68,0,0,0-.57,1,4.1,4.1,0,0,0-.2,1.31,4.05,4.05,0,0,0,.2,1.31,2.68,2.68,0,0,0,.57,1,2.44,2.44,0,0,0,.89.61,3.07,3.07,0,0,0,1.16.22,3,3,0,0,0,1.16-.22,2.44,2.44,0,0,0,.89-.61,2.83,2.83,0,0,0,.57-1A4.05,4.05,0,0,0,130.17,187.27Z" fill="#fff"/><path d="M133.92,187.93v3.31h-1.07v-8h2.25a4.91,4.91,0,0,1,1.3.16,2.49,2.49,0,0,1,.91.44,1.78,1.78,0,0,1,.53.69,2.47,2.47,0,0,1,.17.92,2.2,2.2,0,0,1-.13.78,2,2,0,0,1-.39.66,2.3,2.3,0,0,1-.61.5,3,3,0,0,1-.83.31,1.15,1.15,0,0,1,.36.34l2.32,3.15h-1a.47.47,0,0,1-.43-.22l-2.06-2.84a.77.77,0,0,0-.21-.2.87.87,0,0,0-.33,0Zm0-.79h1.13a2.65,2.65,0,0,0,.83-.11,1.71,1.71,0,0,0,.6-.32,1.36,1.36,0,0,0,.36-.5,1.61,1.61,0,0,0,.12-.63,1.26,1.26,0,0,0-.47-1.08,2.24,2.24,0,0,0-1.39-.36h-1.18Z" fill="#fff"/><polygon points="105.01 87.64 75.6 58.23 83.36 50.48 72.63 39.75 54.15 58.23 105.01 109.09 136.01 78.09 125.28 67.37 105.01 87.64" fill="#84c0ca"/><polygon points="34.31 38.13 45.04 48.86 65.05 28.85 94.45 58.26 86.72 65.99 97.44 76.72 115.91 58.26 65.05 7.4 34.31 38.13" fill="#84c0ca"/><polygon points="74.29 38.09 85.02 48.81 105.29 28.54 134.7 57.95 126.94 65.71 137.66 76.44 156.15 57.95 105.29 7.09 74.29 38.09" fill="#00657e"/><polygon points="64.79 87.92 35.38 58.52 43.25 50.65 32.52 39.92 13.93 58.52 64.79 109.38 95.79 78.38 85.06 67.65 64.79 87.92" fill="#00657e"/></svg>